<svg xmlns="http://www.w3.org/2000/svg" version="1.1" xmlns:xlink="http://www.w3.org/1999/xlink" xmlns:svgjs="http://svgjs.com/svgjs" width="1920" height="1080" preserveAspectRatio="none" viewBox="0 0 1920 1080"><g mask="url(&quot;#SvgjsMask1009&quot;)" fill="none"><rect width="1920" height="1080" x="0" y="0" fill="rgba(20, 123, 165, 1)"></rect><path d="M0,826.621C173.852,844.917,356.35,875.816,513.033,798.295C676.624,717.356,795.947,564.117,868.804,396.77C940.926,231.112,975.257,39.386,918.052,-131.996C863.972,-294.015,703.217,-386.579,571.168,-494.92C460.027,-586.107,344.626,-664.393,209.463,-713.366C66.816,-765.051,-88.106,-837.472,-230.623,-785.429C-372.065,-733.778,-431.651,-572.052,-517.081,-448.054C-593.012,-337.844,-663.134,-228.968,-702.197,-100.961C-747.039,45.984,-806.3,200.544,-759.681,346.935C-711.283,498.913,-582.896,611.996,-448.033,697.153C-313.872,781.866,-157.797,810.015,0,826.621" fill="#106284"></path><path d="M1920 1998.9679999999998C2092.32 1990.328 2163.674 1769.458 2283 1644.839 2372.127 1551.758 2477.225 1476.1390000000001 2532.2200000000003 1359.591 2587.674 1242.07 2593.42 1112.833 2595.346 982.9 2597.599 830.889 2624.18 668.371 2544.381 538.97 2460.42 402.82000000000005 2308.251 324.82399999999996 2157.153 272.33000000000004 2000.848 218.02700000000004 1824.325 170.93200000000002 1672.163 235.94600000000003 1523.2649999999999 299.56600000000003 1478.4850000000001 483.192 1374.046 606.928 1271.3980000000001 728.543 1090.562 800.023 1063.6660000000002 956.878 1036.7469999999998 1113.867 1153.163 1256.951 1239.65 1390.705 1316.058 1508.872 1427.923 1588.662 1532.828 1682.452 1659.6680000000001 1795.8519999999999 1750.0720000000001 2007.488 1920 1998.9679999999998" fill="#1894c6"></path></g><defs><mask id="SvgjsMask1009"><rect width="1920" height="1080" fill="#ffffff"></rect></mask></defs></svg>