<svg xmlns="http://www.w3.org/2000/svg" xmlns:xlink="http://www.w3.org/1999/xlink" width="200" zoomAndPan="magnify" viewBox="0 0 150 37.5" height="50" preserveAspectRatio="xMidYMid meet" version="1.0"><defs><g/><clipPath id="3fdf09065f"><path d="M 5.21875 0 L 41.824219 0 L 41.824219 37 L 5.21875 37 Z M 5.21875 0 " clip-rule="nonzero"/></clipPath></defs><path fill="#ffffff" d="M 27.636719 18.507812 C 27.636719 18.796875 27.609375 19.082031 27.550781 19.367188 C 27.496094 19.652344 27.410156 19.925781 27.300781 20.195312 C 27.1875 20.460938 27.054688 20.714844 26.890625 20.957031 C 26.730469 21.195312 26.546875 21.417969 26.34375 21.621094 C 26.136719 21.828125 25.914062 22.011719 25.671875 22.171875 C 25.429688 22.332031 25.175781 22.46875 24.90625 22.578125 C 24.640625 22.6875 24.363281 22.773438 24.078125 22.828125 C 23.792969 22.882812 23.507812 22.914062 23.214844 22.914062 C 22.925781 22.914062 22.636719 22.882812 22.355469 22.828125 C 22.070312 22.773438 21.792969 22.6875 21.523438 22.578125 C 21.257812 22.46875 21 22.332031 20.761719 22.171875 C 20.519531 22.011719 20.296875 21.828125 20.089844 21.621094 C 19.886719 21.417969 19.703125 21.195312 19.539062 20.957031 C 19.378906 20.714844 19.242188 20.460938 19.132812 20.195312 C 19.019531 19.925781 18.9375 19.652344 18.882812 19.367188 C 18.824219 19.082031 18.796875 18.796875 18.796875 18.507812 C 18.796875 18.21875 18.824219 17.933594 18.882812 17.648438 C 18.9375 17.363281 19.019531 17.089844 19.132812 16.824219 C 19.242188 16.554688 19.378906 16.300781 19.539062 16.0625 C 19.703125 15.820312 19.886719 15.597656 20.089844 15.394531 C 20.296875 15.1875 20.519531 15.007812 20.761719 14.84375 C 21 14.683594 21.257812 14.550781 21.523438 14.4375 C 21.792969 14.328125 22.070312 14.246094 22.355469 14.1875 C 22.636719 14.132812 22.925781 14.101562 23.214844 14.101562 C 23.507812 14.101562 23.792969 14.132812 24.078125 14.1875 C 24.363281 14.246094 24.640625 14.328125 24.90625 14.4375 C 25.175781 14.550781 25.429688 14.683594 25.671875 14.84375 C 25.914062 15.007812 26.136719 15.1875 26.34375 15.394531 C 26.546875 15.597656 26.730469 15.820312 26.890625 16.0625 C 27.054688 16.300781 27.1875 16.554688 27.300781 16.824219 C 27.410156 17.089844 27.496094 17.363281 27.550781 17.648438 C 27.609375 17.933594 27.636719 18.21875 27.636719 18.507812 Z M 27.636719 18.507812 " fill-opacity="1" fill-rule="nonzero"/><g clip-path="url(#3fdf09065f)"><path fill="#ffffff" d="M 23.214844 0.0117188 C 14.566406 0.0117188 7.300781 5.90625 5.238281 13.882812 C 5.21875 13.957031 5.207031 14.027344 5.207031 14.101562 C 5.207031 14.585938 5.601562 14.984375 6.089844 14.984375 L 13.578125 14.984375 C 13.957031 14.984375 14.222656 14.8125 14.378906 14.46875 C 14.378906 14.46875 14.390625 14.445312 14.394531 14.433594 C 15.9375 11.117188 19.308594 8.816406 23.21875 8.816406 C 28.589844 8.816406 32.945312 13.152344 32.945312 18.503906 C 32.945312 23.855469 28.59375 28.195312 23.222656 28.195312 C 19.3125 28.195312 15.941406 25.890625 14.398438 22.574219 C 14.390625 22.5625 14.378906 22.542969 14.378906 22.542969 C 14.238281 22.230469 13.921875 22.027344 13.578125 22.027344 L 6.09375 22.027344 C 5.605469 22.027344 5.210938 22.417969 5.210938 22.90625 C 5.210938 22.980469 5.21875 23.054688 5.238281 23.125 C 7.300781 31.101562 14.570312 37 23.21875 37 C 33.472656 36.996094 41.796875 28.714844 41.796875 18.5 C 41.796875 8.285156 33.484375 0.00390625 23.234375 0.00390625 Z M 23.214844 0.0117188 " fill-opacity="1" fill-rule="nonzero"/></g><g fill="#ffffff" fill-opacity="1"><g transform="translate(53.537447, 25.499422)"><g><path d="M 16.25 -12.382812 C 16.25 -14.085938 14.859375 -15.476562 13.15625 -15.476562 L 0.773438 -15.476562 L 0.773438 0 L 3.871094 0 L 3.871094 -6.191406 L 5.6875 -6.191406 L 11.414062 -0.464844 C 11.722656 -0.15625 12.109375 0 12.535156 0 L 16.25 0 L 16.25 -3.09375 L 13.15625 -3.09375 L 10.058594 -6.191406 L 13.15625 -6.191406 C 14.859375 -6.191406 16.25 -7.582031 16.25 -9.285156 Z M 13.15625 -12.382812 L 13.15625 -9.285156 L 3.871094 -9.285156 L 3.871094 -12.382812 Z M 13.15625 -12.382812 "/></g></g></g><g fill="#ffffff" fill-opacity="1"><g transform="translate(70.557826, 25.499422)"><g><path d="M 16.25 -15.476562 L 3.871094 -15.476562 C 2.167969 -15.476562 0.773438 -14.085938 0.773438 -12.382812 L 0.773438 -3.09375 C 0.773438 -1.394531 2.167969 0 3.871094 0 L 16.25 0 L 16.25 -3.09375 L 3.871094 -3.09375 L 3.871094 -6.191406 L 16.25 -6.191406 L 16.25 -9.285156 L 3.871094 -9.285156 L 3.871094 -12.382812 L 16.25 -12.382812 Z M 16.25 -15.476562 "/></g></g></g><g fill="#ffffff" fill-opacity="1"><g transform="translate(87.578205, 25.499422)"><g><path d="M 16.25 -15.476562 L 12.535156 -15.476562 C 12.109375 -15.476562 11.722656 -15.324219 11.414062 -15.011719 L 5.6875 -9.285156 L 3.871094 -9.285156 L 3.871094 -15.476562 L 0.773438 -15.476562 L 0.773438 0 L 3.871094 0 L 3.871094 -6.191406 L 5.6875 -6.191406 L 11.414062 -0.464844 C 11.722656 -0.15625 12.109375 0 12.535156 0 L 16.25 0 L 16.25 -3.09375 L 13.15625 -3.09375 L 8.511719 -7.738281 L 13.15625 -12.382812 L 16.25 -12.382812 Z M 16.25 -15.476562 "/></g></g></g><g fill="#ffffff" fill-opacity="1"><g transform="translate(104.598585, 25.499422)"><g><path d="M 16.25 -15.476562 L 0.773438 -15.476562 L 0.773438 -12.382812 L 6.964844 -12.382812 L 6.964844 0 L 10.058594 0 L 10.058594 -12.382812 L 16.25 -12.382812 Z M 16.25 -15.476562 "/></g></g></g><g fill="#ffffff" fill-opacity="1"><g transform="translate(121.618964, 25.499422)"><g><path d="M 16.25 -12.382812 C 16.25 -14.085938 14.859375 -15.476562 13.15625 -15.476562 L 0.773438 -15.476562 L 0.773438 0 L 3.871094 0 L 3.871094 -6.191406 L 5.6875 -6.191406 L 11.414062 -0.464844 C 11.722656 -0.15625 12.109375 0 12.535156 0 L 16.25 0 L 16.25 -3.09375 L 13.15625 -3.09375 L 10.058594 -6.191406 L 13.15625 -6.191406 C 14.859375 -6.191406 16.25 -7.582031 16.25 -9.285156 Z M 13.15625 -12.382812 L 13.15625 -9.285156 L 3.871094 -9.285156 L 3.871094 -12.382812 Z M 13.15625 -12.382812 "/></g></g></g></svg>