<svg xmlns="http://www.w3.org/2000/svg" xmlns:xlink="http://www.w3.org/1999/xlink" width="100" zoomAndPan="magnify" viewBox="0 0 112.5 112.499997" height="100" preserveAspectRatio="xMidYMid meet" version="1.0"><defs><clipPath id="79191daa5a"><path d="M 2 8.90625 L 110.535156 8.90625 L 110.535156 103.40625 L 2 103.40625 Z M 2 8.90625 " clip-rule="nonzero"/></clipPath></defs><g clip-path="url(#79191daa5a)"><path fill="#000000" d="M 100.222656 31.328125 C 100.238281 31.335938 100.257812 31.332031 100.265625 31.316406 C 100.277344 31.304688 100.277344 31.285156 100.265625 31.269531 C 98.671875 29.191406 95.558594 25.332031 91.808594 21.949219 C 89.195312 19.589844 86.113281 17.574219 83.65625 16.097656 C 75.027344 10.914062 65.695312 8.90625 56.773438 8.96875 C 43.800781 9.058594 28.953125 15.957031 23.875 27.195312 C 22.234375 30.824219 22.207031 35.351562 23.792969 39.054688 C 23.839844 39.167969 23.839844 39.296875 23.792969 39.410156 C 23.746094 39.523438 23.652344 39.613281 23.535156 39.65625 C 19.226562 41.273438 15.621094 43.226562 12.648438 45.320312 C 7.296875 49.09375 4.121094 53.253906 3.019531 57.632812 C 1.785156 62.550781 3.1875 67.746094 7.351562 73.097656 C 8.949219 75.148438 11.058594 77.167969 13.460938 79.058594 C 13.472656 79.066406 13.492188 79.066406 13.503906 79.058594 C 13.519531 79.046875 13.523438 79.027344 13.519531 79.011719 C 12.804688 77.140625 12.304688 75.613281 12.207031 74.140625 C 11.953125 70.25 13.808594 67.640625 16.714844 66.746094 C 19.144531 65.996094 22.046875 67.027344 26.285156 67.402344 C 28.601562 67.605469 31.238281 67.828125 33.992188 68.148438 C 35.535156 68.332031 36.894531 69.242188 37.652344 70.597656 C 37.84375 70.941406 38.015625 71.292969 38.167969 71.652344 C 38.789062 73.136719 39.023438 74.554688 39.15625 75.917969 C 39.421875 78.585938 38.996094 81.042969 38.289062 83.277344 C 37.171875 86.820312 35.105469 89.855469 32.015625 92.21875 C 29.878906 93.851562 27.355469 94.703125 24.554688 95.734375 C 24.539062 95.742188 24.53125 95.753906 24.53125 95.769531 C 24.535156 95.785156 24.546875 95.796875 24.5625 95.800781 C 25.644531 95.976562 26.710938 96.226562 27.761719 96.414062 C 30.09375 96.828125 32.390625 97.015625 34.65625 96.855469 C 37.894531 96.621094 41.066406 95.710938 44.179688 94.078125 C 44.210938 94.0625 44.25 94.066406 44.273438 94.09375 C 44.296875 94.121094 44.296875 94.160156 44.277344 94.1875 C 41.855469 97.515625 37.78125 99.648438 32.753906 101.097656 C 32.726562 101.105469 32.707031 101.132812 32.707031 101.164062 C 32.710938 101.191406 32.730469 101.21875 32.761719 101.222656 C 44.734375 103.40625 56.183594 100.546875 67.039062 91.96875 C 67.078125 91.941406 67.128906 91.9375 67.167969 91.960938 C 67.210938 91.988281 67.230469 92.035156 67.21875 92.082031 C 66.3125 95.910156 63.886719 99.574219 60.25 103.105469 C 60.230469 103.125 60.226562 103.152344 60.238281 103.175781 C 60.246094 103.199219 60.269531 103.214844 60.296875 103.210938 C 72.125 102.222656 79.660156 95.527344 85.800781 86.984375 C 84.726562 90.363281 82.789062 93.886719 79.863281 97.570312 C 87.277344 95.210938 92.589844 91.832031 95.113281 87.089844 C 95.148438 87.023438 95.210938 86.980469 95.285156 86.96875 C 95.359375 86.960938 95.429688 86.988281 95.480469 87.042969 C 96.246094 87.886719 96.570312 89.144531 96.640625 90.640625 C 96.640625 90.667969 96.65625 90.6875 96.683594 90.699219 C 96.710938 90.707031 96.738281 90.695312 96.753906 90.675781 C 102.671875 83.132812 105.257812 75.800781 105.230469 68.632812 C 105.230469 68.535156 105.28125 68.441406 105.367188 68.386719 C 105.449219 68.332031 105.554688 68.324219 105.644531 68.367188 C 107.261719 69.140625 108.363281 71.242188 109.082031 74.332031 C 109.089844 74.363281 109.117188 74.386719 109.148438 74.386719 C 109.183594 74.390625 109.210938 74.367188 109.21875 74.335938 C 110.527344 69.777344 110.367188 65.179688 109.207031 60.511719 C 108.042969 55.835938 104.996094 48.855469 102.511719 45.976562 C 102.449219 45.910156 102.429688 45.816406 102.460938 45.730469 C 102.496094 45.644531 102.570312 45.582031 102.664062 45.570312 C 104.207031 45.398438 105.636719 45.789062 106.996094 46.515625 C 107.027344 46.535156 107.070312 46.527344 107.097656 46.5 C 107.125 46.472656 107.132812 46.433594 107.117188 46.398438 C 103.566406 39.269531 99.390625 33.625 94.132812 30.53125 C 94.089844 30.507812 94.070312 30.460938 94.078125 30.414062 C 94.082031 30.363281 94.121094 30.324219 94.167969 30.316406 C 96.152344 29.917969 98.179688 30.421875 100.222656 31.328125 Z M 100.222656 31.328125 " fill-opacity="1" fill-rule="evenodd"/></g><path fill="#ffc20f" d="M 38.941406 44.792969 C 38.875 44.597656 38.71875 44.441406 38.523438 44.375 C 36.71875 43.722656 34.460938 41.488281 32.15625 38.375 C 32.09375 38.289062 31.992188 38.242188 31.890625 38.246094 C 31.785156 38.25 31.6875 38.304688 31.632812 38.390625 C 31.328125 38.878906 30.863281 39.179688 30.210938 39.441406 C 20.816406 43.144531 13.167969 46.902344 8.921875 51.683594 C 4.117188 57.089844 3.839844 64.171875 9.722656 71.460938 C 9.753906 71.503906 9.808594 71.515625 9.859375 71.5 C 9.90625 71.484375 9.941406 71.4375 9.941406 71.386719 C 10.035156 67.628906 12.660156 64.933594 15.078125 63.367188 C 17.355469 61.898438 20.554688 61.171875 23.667969 60.808594 C 25.738281 60.570312 27.78125 60.765625 29.449219 60.011719 C 33.296875 58.273438 36.878906 55.722656 41.0625 55.089844 C 45.078125 54.484375 49.273438 54.707031 53.578125 54.925781 C 53.601562 54.929688 53.621094 54.914062 53.621094 54.890625 C 53.625 54.871094 53.613281 54.851562 53.59375 54.84375 C 49.171875 53.585938 45.46875 52.453125 42.96875 50.367188 C 41.828125 49.414062 40.855469 48.238281 40.144531 47.050781 C 39.710938 46.328125 39.230469 45.597656 38.941406 44.792969 Z M 38.941406 44.792969 " fill-opacity="1" fill-rule="evenodd"/><path fill="#fff100" d="M 32.3125 40.085938 C 32.210938 39.972656 32.050781 39.9375 31.910156 39.992188 C 7.273438 49.535156 2.738281 58.695312 8.472656 67.664062 C 8.484375 67.679688 8.503906 67.683594 8.519531 67.675781 C 8.539062 67.671875 8.546875 67.652344 8.542969 67.632812 C 6.136719 55.128906 15.429688 49.457031 29.628906 46.644531 C 29.644531 46.640625 29.65625 46.625 29.65625 46.609375 C 29.65625 46.59375 29.644531 46.578125 29.628906 46.574219 C 28.015625 46.273438 26.9375 45.792969 26.625 45.152344 C 26.140625 44.167969 27.210938 42.886719 28.941406 42.550781 C 30.296875 42.289062 32.441406 42.300781 34.402344 43.484375 C 34.425781 43.5 34.460938 43.5 34.480469 43.480469 C 34.503906 43.460938 34.511719 43.429688 34.5 43.402344 C 34.011719 42.246094 33.292969 41.136719 32.3125 40.085938 Z M 32.3125 40.085938 " fill-opacity="1" fill-rule="evenodd"/><path fill="#ffc20f" d="M 54.28125 56.855469 C 52.488281 56.65625 50.859375 56.511719 49.109375 56.441406 C 45.542969 56.300781 42.117188 56.4375 38.515625 57.460938 C 36.378906 58.070312 32.304688 61.203125 28.574219 61.988281 C 27.578125 62.195312 26.574219 62.335938 25.546875 62.425781 C 23.007812 62.640625 20.542969 62.789062 18.886719 63.746094 C 20.976562 63.953125 23.007812 64.304688 24.875 64.722656 C 31.726562 66.257812 37.6875 66.296875 42.292969 63.726562 C 42.917969 63.207031 43.503906 62.414062 44.152344 61.746094 C 45.371094 60.492188 46.777344 59.289062 48.46875 58.59375 C 49.734375 58.074219 50.996094 57.945312 52.625 57.75 C 53.246094 57.675781 53.851562 57.300781 54.28125 56.855469 Z M 54.28125 56.855469 " fill-opacity="1" fill-rule="evenodd"/><path fill="#000000" d="M 33.082031 44.574219 C 32.683594 44.148438 32.183594 43.832031 31.628906 43.652344 C 29.746094 43.035156 28.507812 43.167969 28.027344 44.179688 C 27.917969 44.40625 28 44.679688 28.214844 44.8125 C 28.910156 45.222656 29.667969 45.40625 30.449219 45.503906 C 30.78125 45.542969 31.09375 45.679688 31.351562 45.894531 C 31.945312 46.394531 32.554688 46.855469 33.214844 47.125 C 33.300781 47.160156 33.398438 47.152344 33.476562 47.109375 C 33.558594 47.066406 33.617188 46.992188 33.640625 46.902344 C 33.835938 46.097656 33.773438 45.3125 33.082031 44.574219 Z M 33.082031 44.574219 " fill-opacity="1" fill-rule="evenodd"/><path fill="#ffffff" d="M 93.183594 27.671875 C 93.226562 27.675781 93.269531 27.65625 93.285156 27.617188 C 93.304688 27.578125 93.296875 27.53125 93.265625 27.5 C 90.484375 24.753906 87.101562 21.609375 83.449219 19.324219 C 77.019531 15.300781 74.140625 14.363281 69.335938 12.964844 C 59.582031 10.128906 50.101562 11.476562 42.15625 14.574219 C 35.351562 17.226562 28.816406 22.425781 25.964844 28.785156 C 24.679688 31.65625 24.792969 36.074219 26.496094 38.789062 C 26.613281 38.972656 26.839844 39.050781 27.046875 38.972656 C 28.460938 38.441406 29.730469 37.707031 30.871094 36.777344 C 31.082031 36.605469 31.210938 36.355469 31.234375 36.082031 C 31.433594 33.847656 32.316406 32.136719 33.726562 30.824219 C 33.765625 30.785156 33.828125 30.785156 33.871094 30.816406 C 33.914062 30.847656 33.925781 30.90625 33.902344 30.957031 C 33.101562 32.570312 32.6875 34.207031 32.882812 35.648438 C 33.023438 36.679688 33.570312 37.523438 34.214844 38.492188 C 35.085938 39.800781 36.257812 41.167969 38.253906 42.242188 C 39.433594 42.875 40.839844 42.9375 42.070312 42.414062 C 44.175781 41.507812 46.660156 39.460938 48.542969 37.691406 C 50.964844 35.417969 53.664062 32.996094 56.546875 30.914062 C 57.898438 29.9375 59.292969 28.957031 60.714844 28.246094 C 61.367188 27.921875 61.976562 27.679688 62.671875 27.480469 C 62.710938 27.46875 62.742188 27.433594 62.75 27.390625 C 62.757812 27.347656 62.738281 27.304688 62.703125 27.28125 C 61.386719 26.386719 59.25 26.851562 56.910156 27.652344 C 56.894531 27.660156 56.875 27.652344 56.871094 27.636719 C 56.863281 27.621094 56.867188 27.605469 56.878906 27.59375 C 61.367188 24.433594 65.859375 22.976562 70.347656 23.707031 C 70.382812 23.710938 70.410156 23.746094 70.40625 23.785156 C 70.402344 23.820312 70.371094 23.851562 70.332031 23.851562 C 68.105469 23.816406 65.933594 24.199219 63.867188 25.402344 C 63.832031 25.421875 63.816406 25.460938 63.824219 25.5 C 63.835938 25.539062 63.867188 25.566406 63.90625 25.570312 C 66.890625 25.78125 69.613281 26.351562 71.992188 27.410156 C 72.027344 27.425781 72.042969 27.464844 72.03125 27.5 C 72.019531 27.539062 71.980469 27.558594 71.945312 27.550781 C 67.9375 26.832031 63.308594 28.925781 58.441406 32.089844 C 58.40625 32.113281 58.394531 32.15625 58.40625 32.199219 C 58.425781 32.238281 58.464844 32.261719 58.507812 32.253906 C 60.71875 31.867188 62.8125 32.566406 64.796875 34.273438 C 64.808594 34.28125 64.8125 34.300781 64.804688 34.3125 C 64.796875 34.324219 64.78125 34.328125 64.769531 34.320312 C 64.332031 34.117188 64 34.011719 63.589844 33.972656 C 62.222656 33.828125 61.152344 34.234375 60.820312 35.210938 C 60.679688 35.628906 60.6875 36.085938 60.839844 36.5 C 61.5 38.265625 61.625 39.050781 61.554688 40.128906 C 61.417969 42.328125 60.394531 43.695312 59.082031 44.730469 C 57.222656 46.191406 54.558594 46.75 51.046875 45.976562 C 49.4375 45.621094 47.753906 44.953125 46 43.957031 C 45.523438 43.683594 44.972656 43.5625 44.425781 43.613281 C 43.597656 43.683594 42.808594 43.96875 41.992188 44.296875 C 41.695312 44.417969 41.382812 44.5625 41.046875 44.628906 C 40.992188 44.640625 40.945312 44.675781 40.917969 44.726562 C 40.894531 44.777344 40.890625 44.835938 40.914062 44.886719 C 42.417969 48.121094 45.527344 50.210938 49.472656 51.753906 C 51.730469 52.640625 53.902344 53.167969 56.878906 53.753906 C 57.695312 53.914062 58.738281 54.039062 59.554688 54.273438 C 60.347656 54.503906 61.199219 54.730469 61.972656 55.027344 C 63.042969 55.441406 64.03125 56.039062 65.160156 56.664062 C 65.234375 56.703125 65.269531 56.785156 65.25 56.867188 C 65.234375 56.949219 65.164062 57.007812 65.078125 57.015625 C 63.710938 57.09375 62.4375 57.214844 61.132812 57.304688 C 59.429688 57.417969 57.648438 57.347656 56.160156 57.851562 C 55.316406 58.132812 54.699219 58.90625 53.910156 59.242188 C 53.269531 59.515625 52.566406 59.511719 51.929688 59.71875 C 52.910156 60.144531 53.992188 60.515625 54.65625 61.199219 C 55.492188 62.0625 55.722656 63.304688 55.890625 64.789062 C 55.894531 64.820312 55.875 64.851562 55.84375 64.859375 C 55.8125 64.871094 55.78125 64.855469 55.765625 64.828125 C 54.9375 63.351562 53.835938 62.203125 52.402344 61.511719 C 51.382812 61.273438 50.429688 60.914062 49.578125 60.363281 C 48.203125 60.484375 47.671875 60.730469 46.726562 62.515625 C 45.070312 64.742188 43.488281 66.371094 42.085938 66.550781 C 44.410156 68.300781 46.390625 69.675781 47.863281 71.476562 C 53.929688 78.890625 52.894531 87.03125 46.96875 94.511719 C 45.539062 96.3125 43.851562 97.820312 41.75 99.3125 C 41.71875 99.332031 41.707031 99.375 41.71875 99.410156 C 41.730469 99.445312 41.765625 99.464844 41.800781 99.464844 C 56.234375 98.398438 68.324219 92.339844 75.476562 76.925781 C 76.285156 75.179688 76.953125 73.300781 77.507812 71.234375 C 77.523438 71.171875 77.582031 71.128906 77.648438 71.136719 C 77.714844 71.140625 77.765625 71.191406 77.773438 71.257812 C 78.378906 77.191406 76.476562 82.933594 71.042969 88.40625 C 70.8125 88.636719 70.652344 88.933594 70.585938 89.25 C 69.800781 92.949219 68.527344 96.433594 66.582031 99.621094 C 66.554688 99.664062 66.558594 99.71875 66.589844 99.753906 C 66.621094 99.792969 66.671875 99.808594 66.71875 99.792969 C 71.285156 98.210938 75.675781 95.203125 79.078125 91.058594 C 83.761719 85.363281 88.574219 79.441406 90.449219 70.632812 C 90.960938 68.226562 89.753906 64.328125 88.628906 62.742188 C 88.597656 62.707031 88.597656 62.65625 88.632812 62.621094 C 88.664062 62.585938 88.714844 62.582031 88.753906 62.609375 C 92.933594 65.652344 93.128906 71.351562 91.015625 78.589844 C 90.0625 83.765625 88.269531 88.4375 85.417969 92.472656 C 85.394531 92.503906 85.398438 92.550781 85.425781 92.582031 C 85.453125 92.613281 85.5 92.621094 85.535156 92.601562 C 87.515625 91.476562 89.320312 90.230469 90.78125 88.710938 C 94.820312 84.5 96.84375 78.738281 97.28125 71.785156 C 97.28125 71.726562 97.324219 71.679688 97.378906 71.671875 C 97.4375 71.660156 97.492188 71.691406 97.515625 71.742188 C 98.535156 74.273438 98.679688 78.320312 98.402344 83.085938 C 98.402344 83.128906 98.425781 83.167969 98.464844 83.183594 C 98.503906 83.199219 98.550781 83.1875 98.578125 83.152344 C 102.050781 78.726562 103.195312 71.609375 103.03125 62.953125 C 103.03125 62.902344 103.0625 62.855469 103.109375 62.835938 C 103.15625 62.8125 103.210938 62.820312 103.25 62.855469 C 104.769531 64.242188 106.246094 65.675781 107.679688 67.144531 C 107.707031 67.175781 107.75 67.183594 107.785156 67.164062 C 107.820312 67.148438 107.84375 67.109375 107.839844 67.070312 C 106.53125 55.015625 100.9375 45.296875 90.757812 38.078125 C 90.722656 38.054688 90.707031 38.007812 90.722656 37.96875 C 90.742188 37.929688 90.78125 37.90625 90.824219 37.914062 C 91.683594 38.050781 92.453125 38.3125 93.25 38.480469 C 94.945312 38.84375 96.5625 39.1875 97.925781 39.746094 C 99.234375 40.285156 100.3125 41.011719 101.261719 41.753906 C 101.285156 41.773438 101.316406 41.773438 101.335938 41.753906 C 101.359375 41.734375 101.363281 41.703125 101.351562 41.679688 C 98.03125 35.695312 92.050781 31.609375 84.597656 28.566406 C 84.5625 28.554688 84.542969 28.523438 84.546875 28.488281 C 84.546875 28.453125 84.570312 28.421875 84.605469 28.414062 C 87.542969 27.574219 90.398438 27.371094 93.183594 27.671875 Z M 93.183594 27.671875 " fill-opacity="1" fill-rule="evenodd"/><path fill="#ffffff" d="M 43.832031 67.839844 C 43.363281 67.285156 42.71875 66.925781 42.085938 66.546875 C 40.203125 66.972656 39.765625 68.617188 40.683594 71.40625 C 43.773438 80.40625 40.636719 87.769531 34.09375 94.242188 C 38.40625 94.105469 43.265625 92.285156 48.839844 88.261719 C 50.972656 83.125 50.554688 76.867188 43.832031 67.839844 Z M 43.832031 67.839844 " fill-opacity="1" fill-rule="evenodd"/><path fill="#c0c1c6" d="M 49.230469 40.4375 C 48.242188 41.214844 47.199219 41.921875 46.117188 42.570312 C 46.453125 42.597656 46.804688 42.597656 47.105469 42.523438 C 47.566406 42.414062 47.9375 42.148438 48.304688 42.234375 C 48.902344 43.464844 49.78125 44.292969 51.1875 44.375 C 49.96875 43.40625 49.265625 42.121094 49.230469 40.4375 Z M 49.230469 40.4375 " fill-opacity="1" fill-rule="evenodd"/><path fill="#fff100" d="M 54.515625 35.160156 C 54.382812 35.164062 54.257812 35.21875 54.160156 35.308594 C 52.75 36.582031 51.386719 38 50.066406 39.523438 C 49.984375 39.617188 49.941406 39.738281 49.945312 39.863281 C 50.003906 42.027344 50.917969 43.5625 52.933594 44.300781 C 53.457031 44.492188 54.003906 44.601562 54.558594 44.617188 C 55.785156 44.660156 56.820312 44.308594 57.667969 43.566406 C 58.789062 42.578125 59.417969 41.144531 59.375 39.648438 C 59.367188 39.519531 59.359375 39.398438 59.34375 39.273438 C 59.214844 38.179688 58.765625 37.292969 58.125 36.605469 C 57.53125 35.964844 56.71875 35.476562 55.648438 35.246094 C 55.304688 35.171875 54.925781 35.136719 54.515625 35.160156 Z M 54.515625 35.160156 " fill-opacity="1" fill-rule="evenodd"/><path fill="#000000" d="M 57.550781 39.90625 C 57.550781 40.296875 57.476562 40.667969 57.328125 41.027344 C 57.179688 41.386719 56.96875 41.707031 56.695312 41.980469 C 56.421875 42.257812 56.105469 42.46875 55.75 42.617188 C 55.390625 42.765625 55.019531 42.839844 54.632812 42.839844 C 54.246094 42.839844 53.875 42.765625 53.515625 42.617188 C 53.160156 42.46875 52.84375 42.257812 52.570312 41.980469 C 52.296875 41.707031 52.085938 41.386719 51.9375 41.027344 C 51.789062 40.667969 51.714844 40.296875 51.714844 39.90625 C 51.714844 39.515625 51.789062 39.140625 51.9375 38.78125 C 52.085938 38.421875 52.296875 38.105469 52.570312 37.832031 C 52.84375 37.554688 53.160156 37.34375 53.515625 37.195312 C 53.875 37.046875 54.246094 36.972656 54.632812 36.972656 C 55.019531 36.972656 55.390625 37.046875 55.75 37.195312 C 56.105469 37.34375 56.421875 37.554688 56.695312 37.832031 C 56.96875 38.105469 57.179688 38.421875 57.328125 38.78125 C 57.476562 39.140625 57.550781 39.515625 57.550781 39.90625 Z M 57.550781 39.90625 " fill-opacity="1" fill-rule="nonzero"/><path fill="#ffffff" d="M 57.160156 37.769531 C 57.160156 37.953125 57.125 38.128906 57.054688 38.296875 C 56.984375 38.46875 56.882812 38.617188 56.75 38.746094 C 56.617188 38.875 56.464844 38.976562 56.292969 39.046875 C 56.121094 39.117188 55.941406 39.152344 55.753906 39.152344 C 55.566406 39.152344 55.390625 39.117188 55.214844 39.046875 C 55.042969 38.976562 54.890625 38.875 54.761719 38.746094 C 54.628906 38.617188 54.527344 38.46875 54.457031 38.296875 C 54.382812 38.128906 54.347656 37.953125 54.347656 37.769531 C 54.347656 37.585938 54.382812 37.410156 54.457031 37.242188 C 54.527344 37.074219 54.628906 36.921875 54.761719 36.792969 C 54.890625 36.664062 55.042969 36.566406 55.214844 36.496094 C 55.390625 36.425781 55.566406 36.390625 55.753906 36.390625 C 55.941406 36.390625 56.121094 36.425781 56.292969 36.496094 C 56.464844 36.566406 56.617188 36.664062 56.75 36.792969 C 56.882812 36.921875 56.984375 37.074219 57.054688 37.242188 C 57.125 37.410156 57.160156 37.585938 57.160156 37.769531 Z M 57.160156 37.769531 " fill-opacity="1" fill-rule="nonzero"/></svg>