<svg xmlns="http://www.w3.org/2000/svg" xmlns:xlink="http://www.w3.org/1999/xlink" width="125" zoomAndPan="magnify" viewBox="0 0 112.5 112.499997" height="125" preserveAspectRatio="xMidYMid meet" version="1.0"><defs><g/><clipPath id="189eaa36b5"><path d="M 19.039062 29.023438 L 92.199219 29.023438 L 92.199219 96.75 L 19.039062 96.75 Z M 19.039062 29.023438 " clip-rule="nonzero"/></clipPath><clipPath id="e94d60e943"><path d="M 17.824219 0 L 95.035156 0 L 95.035156 67.726562 L 17.824219 67.726562 Z M 17.824219 0 " clip-rule="nonzero"/></clipPath></defs><g clip-path="url(#189eaa36b5)"><path fill="#fdc700" d="M 54.644531 29.125 L 48.757812 37.539062 L 80.539062 59.5625 C 79.734375 62.339844 78.828125 64.679688 77.832031 66.511719 C 72.058594 77.144531 61.714844 83.140625 56.425781 85.644531 C 51.15625 83.148438 40.804688 77.152344 35.027344 66.511719 C 33.449219 63.605469 32.089844 59.414062 31.003906 54.207031 L 19.25 46.0625 C 20.386719 55.316406 22.40625 64.832031 25.964844 71.382812 C 36.054688 89.976562 56.429688 96.757812 56.429688 96.757812 C 56.429688 96.757812 76.804688 89.976562 86.898438 71.382812 C 87.828125 69.667969 88.652344 67.75 89.382812 65.691406 C 89.441406 65.53125 89.492188 65.367188 89.550781 65.207031 C 89.628906 64.972656 89.710938 64.742188 89.789062 64.507812 C 89.847656 64.324219 89.90625 64.136719 89.964844 63.949219 C 90.039062 63.714844 90.117188 63.484375 90.1875 63.246094 C 90.246094 63.054688 90.304688 62.851562 90.363281 62.65625 C 90.425781 62.445312 90.488281 62.234375 90.550781 62.019531 C 90.550781 62.019531 90.550781 62.019531 90.546875 62.019531 C 91.175781 59.816406 91.71875 57.503906 92.183594 55.136719 L 54.644531 29.125 " fill-opacity="1" fill-rule="nonzero"/></g><g clip-path="url(#e94d60e943)"><path fill="#232323" d="M 94.984375 16.882812 C 93.964844 16.949219 92.929688 16.984375 91.878906 16.984375 C 89.117188 16.984375 86.265625 16.746094 83.371094 16.246094 C 70.957031 14.09375 60.9375 7.691406 56.429688 0 C 51.921875 7.691406 41.902344 14.09375 29.492188 16.246094 C 26.59375 16.746094 23.742188 16.984375 20.980469 16.984375 C 19.933594 16.984375 18.894531 16.949219 17.875 16.882812 C 17.875 16.882812 17.742188 21.035156 17.90625 27.207031 C 17.914062 27.476562 17.921875 27.753906 17.929688 28.03125 C 17.933594 28.082031 17.933594 28.128906 17.9375 28.175781 C 17.941406 28.394531 17.949219 28.613281 17.957031 28.835938 C 17.957031 28.898438 17.960938 28.964844 17.964844 29.03125 C 17.972656 29.238281 17.980469 29.449219 17.988281 29.660156 C 17.988281 29.734375 17.992188 29.808594 17.996094 29.882812 C 18.003906 30.089844 18.011719 30.296875 18.019531 30.507812 C 18.023438 30.582031 18.027344 30.660156 18.027344 30.738281 C 18.039062 30.960938 18.050781 31.191406 18.058594 31.417969 C 18.0625 31.476562 18.0625 31.535156 18.066406 31.597656 C 18.09375 32.183594 18.125 32.78125 18.15625 33.390625 C 18.160156 33.429688 18.160156 33.46875 18.164062 33.507812 C 18.175781 33.765625 18.191406 34.023438 18.207031 34.28125 C 18.210938 34.371094 18.21875 34.460938 18.222656 34.546875 C 18.234375 34.761719 18.25 34.976562 18.261719 35.195312 C 18.265625 35.234375 18.265625 35.277344 18.269531 35.320312 C 18.371094 36.902344 18.492188 38.539062 18.636719 40.207031 L 58.214844 67.632812 L 64.101562 59.21875 L 28.546875 34.582031 C 28.371094 31.769531 28.265625 29.125 28.203125 26.792969 C 29.222656 26.671875 30.242188 26.519531 31.257812 26.34375 C 41 24.65625 49.765625 20.757812 56.429688 15.34375 C 63.097656 20.757812 71.859375 24.65625 81.601562 26.34375 C 82.621094 26.519531 83.640625 26.671875 84.660156 26.792969 C 84.582031 29.765625 84.429688 33.242188 84.152344 36.949219 C 83.976562 39.292969 83.761719 41.542969 83.515625 43.699219 L 93.027344 50.289062 C 95.535156 33.941406 94.984375 16.882812 94.984375 16.882812 " fill-opacity="1" fill-rule="nonzero"/></g><g fill="#232323" fill-opacity="1"><g transform="translate(17.108914, 108.938317)"><g><path d="M 0.976562 0 L 3.648438 0 L 3.648438 -2.632812 L 4.65625 -2.632812 L 5.976562 0 L 9.003906 0 L 7.296875 -3.121094 C 8.277344 -3.664062 8.832031 -4.640625 8.832031 -5.9375 C 8.832031 -7.988281 7.445312 -9.253906 5.195312 -9.253906 L 0.976562 -9.253906 Z M 3.597656 -4.761719 L 3.597656 -7.074219 L 4.839844 -7.074219 C 5.6875 -7.074219 6.148438 -6.664062 6.148438 -5.921875 C 6.148438 -5.183594 5.6875 -4.761719 4.839844 -4.761719 Z M 3.597656 -4.761719 "/></g></g></g><g fill="#232323" fill-opacity="1"><g transform="translate(26.62646, 108.938317)"><g><path d="M 0.976562 0 L 7.472656 0 L 7.472656 -2.183594 L 3.621094 -2.183594 L 3.621094 -3.609375 L 6.96875 -3.609375 L 6.96875 -5.75 L 3.621094 -5.75 L 3.621094 -7.101562 L 7.324219 -7.101562 L 7.324219 -9.253906 L 0.976562 -9.253906 Z M 0.976562 0 "/></g></g></g><g fill="#232323" fill-opacity="1"><g transform="translate(34.689944, 108.938317)"><g><path d="M 0.976562 0 L 3.648438 0 L 3.648438 -3.503906 L 4.8125 -3.503906 L 6.585938 0 L 9.679688 0 L 7.246094 -4.496094 C 7.523438 -4.828125 7.773438 -5.261719 7.988281 -5.804688 L 9.363281 -9.253906 L 6.464844 -9.253906 L 5.632812 -6.941406 C 5.355469 -6.136719 5.050781 -5.9375 4.097656 -5.9375 L 3.648438 -5.9375 L 3.648438 -9.253906 L 0.976562 -9.253906 Z M 0.976562 0 "/></g></g></g><g fill="#232323" fill-opacity="1"><g transform="translate(44.68337, 108.938317)"><g><path d="M 3.1875 0 L 5.84375 0 L 5.84375 -6.78125 L 8.660156 -6.78125 L 8.660156 -9.253906 L 0.371094 -9.253906 L 0.371094 -6.78125 L 3.1875 -6.78125 Z M 3.1875 0 "/></g></g></g><g fill="#232323" fill-opacity="1"><g transform="translate(53.711819, 108.938317)"><g><path d="M 0.976562 0 L 3.648438 0 L 3.648438 -2.632812 L 4.65625 -2.632812 L 5.976562 0 L 9.003906 0 L 7.296875 -3.121094 C 8.277344 -3.664062 8.832031 -4.640625 8.832031 -5.9375 C 8.832031 -7.988281 7.445312 -9.253906 5.195312 -9.253906 L 0.976562 -9.253906 Z M 3.597656 -4.761719 L 3.597656 -7.074219 L 4.839844 -7.074219 C 5.6875 -7.074219 6.148438 -6.664062 6.148438 -5.921875 C 6.148438 -5.183594 5.6875 -4.761719 4.839844 -4.761719 Z M 3.597656 -4.761719 "/></g></g></g><g fill="#232323" fill-opacity="1"><g transform="translate(63.229366, 108.938317)"><g/></g></g><g fill="#232323" fill-opacity="1"><g transform="translate(66.282913, 108.938317)"><g><path d="M 0.976562 0 L 3.648438 0 L 3.648438 -9.253906 L 0.976562 -9.253906 Z M 0.976562 0 "/></g></g></g><g fill="#232323" fill-opacity="1"><g transform="translate(70.909495, 108.938317)"><g><path d="M 0.976562 0 L 3.621094 0 L 3.621094 -4.71875 L 7.140625 0 L 9.308594 0 L 9.308594 -9.253906 L 6.675781 -9.253906 L 6.675781 -4.5625 L 3.160156 -9.253906 L 0.976562 -9.253906 Z M 0.976562 0 "/></g></g></g><g fill="#232323" fill-opacity="1"><g transform="translate(81.206957, 108.938317)"><g><path d="M 5.300781 0.199219 C 7.855469 0.199219 9.785156 -1.347656 10.179688 -3.703125 L 7.472656 -3.703125 C 7.140625 -2.828125 6.359375 -2.273438 5.355469 -2.273438 C 4.058594 -2.273438 3.160156 -3.238281 3.160156 -4.628906 C 3.160156 -6.03125 4.074219 -6.980469 5.382812 -6.980469 C 6.347656 -6.980469 7.152344 -6.4375 7.429688 -5.605469 L 10.128906 -5.605469 C 9.652344 -7.945312 7.75 -9.453125 5.277344 -9.453125 C 2.417969 -9.453125 0.449219 -7.484375 0.449219 -4.628906 C 0.449219 -1.773438 2.417969 0.199219 5.300781 0.199219 Z M 5.300781 0.199219 "/></g></g></g><g fill="#232323" fill-opacity="1"><g transform="translate(91.804219, 108.938317)"><g><path d="M 1.796875 0.171875 C 2.617188 0.171875 3.199219 -0.410156 3.199219 -1.203125 C 3.199219 -1.996094 2.617188 -2.578125 1.796875 -2.578125 C 0.964844 -2.578125 0.382812 -1.996094 0.382812 -1.203125 C 0.382812 -0.410156 0.964844 0.171875 1.796875 0.171875 Z M 1.796875 0.171875 "/></g></g></g></svg>